<svg width="74" height="74" viewBox="0 0 74 74" fill="none" xmlns="http://www.w3.org/2000/svg">
<path d="M60.68 5.91992H13.32C9.23524 5.91992 5.92004 9.23512 5.92004 13.3199V60.6799C5.92004 64.7647 9.23524 68.0799 13.32 68.0799H60.68C64.7648 68.0799 68.08 64.7647 68.08 60.6799V13.3199C68.08 9.23512 64.7648 5.91992 60.68 5.91992ZM54.76 28.1199H51.8C48.6328 28.1199 47.36 28.8599 47.36 31.0799V35.5199H54.76L53.28 42.9199H47.36V65.1199H39.96V42.9199H34.04V35.5199H39.96V31.0799C39.96 25.1599 42.92 20.7199 48.84 20.7199C53.132 20.7199 54.76 22.1999 54.76 22.1999V28.1199Z" fill="black"/>
</svg>
