<svg width="73" height="74" viewBox="0 0 73 74" fill="none" xmlns="http://www.w3.org/2000/svg">
<path d="M24.3333 9.25C15.9475 9.25 9.125 16.1659 9.125 24.6667V49.3333C9.125 57.8341 15.9475 64.75 24.3333 64.75H48.6667C57.0525 64.75 63.875 57.8341 63.875 49.3333V24.6667C63.875 16.1659 57.0525 9.25 48.6667 9.25H24.3333ZM24.3333 15.4167H48.6667C53.6976 15.4167 57.7917 19.5668 57.7917 24.6667V49.3333C57.7917 54.4332 53.6976 58.5833 48.6667 58.5833H24.3333C19.3024 58.5833 15.2083 54.4332 15.2083 49.3333V24.6667C15.2083 19.5668 19.3024 15.4167 24.3333 15.4167ZM51.7083 18.5C50.9016 18.5 50.128 18.8249 49.5575 19.4031C48.9871 19.9813 48.6667 20.7656 48.6667 21.5833C48.6667 22.4011 48.9871 23.1853 49.5575 23.7636C50.128 24.3418 50.9016 24.6667 51.7083 24.6667C52.515 24.6667 53.2887 24.3418 53.8591 23.7636C54.4295 23.1853 54.75 22.4011 54.75 21.5833C54.75 20.7656 54.4295 19.9813 53.8591 19.4031C53.2887 18.8249 52.515 18.5 51.7083 18.5ZM36.5 21.5833C28.1141 21.5833 21.2917 28.4993 21.2917 37C21.2917 45.5007 28.1141 52.4167 36.5 52.4167C44.8859 52.4167 51.7083 45.5007 51.7083 37C51.7083 28.4993 44.8859 21.5833 36.5 21.5833ZM36.5 27.75C41.5309 27.75 45.625 31.9002 45.625 37C45.625 42.0998 41.5309 46.25 36.5 46.25C31.4691 46.25 27.375 42.0998 27.375 37C27.375 31.9002 31.4691 27.75 36.5 27.75Z" fill="black"/>
</svg>
