<svg width="74" height="74" viewBox="0 0 74 74" fill="none" xmlns="http://www.w3.org/2000/svg">
<path d="M69.0667 17.111C66.7061 18.1594 64.1704 18.8648 61.5088 19.183C64.2271 17.555 66.3114 14.9774 67.2932 11.9039C64.7525 13.411 61.9356 14.5062 58.9361 15.0982C56.536 12.5403 53.1172 10.9419 49.3334 10.9419C42.0666 10.9419 36.1762 16.8348 36.1762 24.0991C36.1762 25.1302 36.2946 26.1366 36.5166 27.0961C25.5818 26.5485 15.8878 21.3093 9.39557 13.3469C8.26584 15.2906 7.61711 17.5501 7.61711 19.965C7.61711 24.5283 9.93824 28.5564 13.468 30.9145C11.3122 30.8454 9.28211 30.2534 7.50857 29.2692C7.50857 29.326 7.50857 29.3778 7.50857 29.4345C7.50857 35.8108 12.0423 41.129 18.0634 42.3352C16.9608 42.6361 15.7966 42.7964 14.5953 42.7964C13.7492 42.7964 12.9229 42.7126 12.1212 42.5621C13.7961 47.789 18.6554 51.595 24.4126 51.7011C19.911 55.2309 14.2376 57.335 8.07097 57.335C7.01031 57.335 5.96197 57.2733 4.93091 57.15C10.7547 60.882 17.6688 63.0601 25.1008 63.0601C49.3038 63.0601 62.535 43.011 62.535 25.6235C62.535 25.0537 62.5226 24.4864 62.498 23.9215C65.0707 22.0641 67.303 19.7479 69.0667 17.111Z" fill="black"/>
</svg>
