<svg width="74" height="74" viewBox="0 0 74 74" fill="none" xmlns="http://www.w3.org/2000/svg">
<path d="M66.4496 21.4598C65.8599 18.205 63.0503 15.8347 59.7896 15.0947C54.9103 14.0598 45.8799 13.3198 36.1096 13.3198C26.3451 13.3198 17.1703 14.0598 12.2851 15.0947C9.03025 15.8347 6.21479 18.0547 5.6251 21.4598C5.02963 25.1598 4.43994 30.3398 4.43994 36.9998C4.43994 43.6598 5.02963 48.8398 5.76963 52.5398C6.3651 55.7947 9.17479 58.165 12.4296 58.905C17.6096 59.9398 26.4896 60.6798 36.2599 60.6798C46.0303 60.6798 54.9103 59.9398 60.0903 58.905C63.3451 58.165 66.1548 55.945 66.7503 52.5398C67.3399 48.8398 68.0799 43.5095 68.2303 36.9998C67.9296 30.3398 67.1896 25.1598 66.4496 21.4598ZM28.1199 47.3598V26.6398L46.1748 36.9998L28.1199 47.3598Z" fill="black"/>
</svg>
