<svg width="52" height="52" viewBox="0 0 52 52" fill="none" xmlns="http://www.w3.org/2000/svg">
<g clip-path="url(#clip0_81_108)">
<path fill-rule="evenodd" clip-rule="evenodd" d="M12.881 14.7687H19.903C23.0864 14.7687 25.8416 13.7989 25.8416 10.251C25.8416 7.43612 23.4224 6.83826 21.0964 6.83826H14.5632L12.881 14.7687ZM40.6886 33.7318H51.8866L41.781 40.7264L43.4152 51.7484L34.6594 45.0962L22.9088 52L28.403 40.318C28.403 40.318 22.0126 33.6544 22.0176 33.6544C21.588 33.0872 21.4444 31.6264 21.4444 30.9978C21.4444 30.2032 21.4952 29.3984 21.5492 28.5412C21.6108 27.5644 21.6766 26.5198 21.6766 25.3446C21.6766 22.4446 20.3954 20.928 17.2633 20.928H11.3909L8.83398 32.8986H0L7.02524 0H23.6496C29.8274 0 34.5422 1.5198 34.5422 8.52788C34.5422 13.4609 32.1144 16.9649 26.7586 17.7007V17.7952C29.277 18.3939 30.2204 20.0974 30.2204 23.272C30.2204 24.5394 30.182 25.6516 30.1456 26.6978C30.1134 27.6268 30.083 28.5034 30.083 29.3904C30.083 30.5272 30.3786 32.3854 31.1226 33.6544H32.35L38.9126 22.6918L40.6886 33.7318ZM39.299 35.3396H46.7306L40.0306 39.9756L41.2278 48.0582L34.781 43.1558L26.5968 47.9612L30.3434 40.0058L25.7878 35.2614H33.2776L38.0158 27.3466L39.299 35.3396Z" fill="white"/>
</g>
<defs>
<clipPath id="clip0_81_108">
<rect width="52" height="52" fill="white"/>
</clipPath>
</defs>
</svg>
